HIERARCHY
ROOT Hips
{
  OFFSET 5.84602e-005 68.8428 3.50346
  CHANNELS 6 Xposition Yposition Zposition Zrotation Xrotation Yrotation
  JOINT Spine
  {
    OFFSET 0 8.597 -4.6522
    CHANNELS 3 Zrotation Xrotation Yrotation
    JOINT Spine1
    {
      OFFSET 0 7.8454 0.4098
      CHANNELS 3 Zrotation Xrotation Yrotation
      JOINT Spine2
      {
        OFFSET 0 9.7078 -2.1609
        CHANNELS 3 Zrotation Xrotation Yrotation
        JOINT Neck
        {
          OFFSET 0 21.8761 -0.4549
          CHANNELS 3 Zrotation Xrotation Yrotation
          JOINT Head
          {
            OFFSET 0 12.3537 3.3602
            CHANNELS 3 Zrotation Xrotation Yrotation
            End Site
            {
              OFFSET 0.0001 18.9506 0.5657
            }
          }
        }
        JOINT LeftShoulder
        {
          OFFSET 2.2086 21.1115 7.2329
          CHANNELS 3 Zrotation Xrotation Yrotation
          JOINT LeftArm
          {
            OFFSET 13.1193 3.0282 -4.8998
            CHANNELS 3 Zrotation Xrotation Yrotation
            JOINT LeftForeArm
            {
              OFFSET 27.4081 -0.0973053 -0.2375
              CHANNELS 3 Zrotation Xrotation Yrotation
              JOINT LeftHand
              {
                OFFSET 22.8641 0.0662994 -0.1369
                CHANNELS 3 Zrotation Xrotation Yrotation
                JOINT LeftHandIndex1
                {
                  OFFSET 8.8614 0.775009 2.4612
                  CHANNELS 3 Zrotation Xrotation Yrotation
                  JOINT LeftHandIndex2
                  {
                    OFFSET 3.3146 -0.808304 0.5841
                    CHANNELS 3 Zrotation Xrotation Yrotation
                    JOINT LeftHandIndex3
                    {
                      OFFSET 2.2628 -0.552002 0.3989
                      CHANNELS 3 Zrotation Xrotation Yrotation
                      End Site
                      {
                        OFFSET 1.6102 -0.4807 0.2612
                      }
                    }
                  }
                }
                JOINT LeftHandMiddle1
                {
                  OFFSET 8.9937 0.895004 0.2143
                  CHANNELS 3 Zrotation Xrotation Yrotation
                  JOINT LeftHandMiddle2
                  {
                    OFFSET 4.0984 0.0113983 -0.0242
                    CHANNELS 3 Zrotation Xrotation Yrotation
                    JOINT LeftHandMiddle3
                    {
                      OFFSET 2.2716 0.00689697 -0.0138001
                      CHANNELS 3 Zrotation Xrotation Yrotation
                      End Site
                      {
                        OFFSET 2.0404 -0.1441 0.0027
                      }
                    }
                  }
                }
                JOINT LeftHandRing1
                {
                  OFFSET 8.5234 0.597198 -2.0164
                  CHANNELS 3 Zrotation Xrotation Yrotation
                  JOINT LeftHandRing2
                  {
                    OFFSET 3.7188 -0.188293 -0.2328
                    CHANNELS 3 Zrotation Xrotation Yrotation
                    JOINT LeftHandRing3
                    {
                      OFFSET 2.1191 -0.106598 -0.1332
                      CHANNELS 3 Zrotation Xrotation Yrotation
                      End Site
                      {
                        OFFSET 1.8737 -0.2304 -0.0886
                      }
                    }
                  }
                }
                JOINT LeftHandPinky1
                {
                  OFFSET 7.9094 -0.601089 -3.4825
                  CHANNELS 3 Zrotation Xrotation Yrotation
                  JOINT LeftHandPinky2
                  {
                    OFFSET 2.2874 -0.477005 -0.6314
                    CHANNELS 3 Zrotation Xrotation Yrotation
                    JOINT LeftHandPinky3
                    {
                      OFFSET 1.6774 -0.349396 -0.4633
                      CHANNELS 3 Zrotation Xrotation Yrotation
                      End Site
                      {
                        OFFSET 1.4888 -0.4091 -0.3416
                      }
                    }
                  }
                }
                JOINT LeftHandThumb1
                {
                  OFFSET 1.833 -1.3875 1.3896
                  CHANNELS 3 Zrotation Xrotation Yrotation
                  JOINT LeftHandThumb2
                  {
                    OFFSET 3.4129 -1.121 2.5732
                    CHANNELS 3 Zrotation Xrotation Yrotation
                    JOINT LeftHandThumb3
                    {
                      OFFSET 2.2474 -0.804199 1.6192
                      CHANNELS 3 Zrotation Xrotation Yrotation
                      End Site
                      {
                        OFFSET 1.6527 -0.5689 1.1317
                      }
                    }
                  }
                }
              }
            }
          }
        }
        JOINT RightShoulder
        {
          OFFSET -2.2086 21.1115 7.2329
          CHANNELS 3 Zrotation Xrotation Yrotation
          JOINT RightArm
          {
            OFFSET -13.1216 3.0287 -4.9007
            CHANNELS 3 Zrotation Xrotation Yrotation
            JOINT RightForeArm
            {
              OFFSET -27.4081 -0.0973053 -0.2375
              CHANNELS 3 Zrotation Xrotation Yrotation
              JOINT RightHand
              {
                OFFSET -22.8641 0.0664063 -0.1369
                CHANNELS 3 Zrotation Xrotation Yrotation
                JOINT RightHandIndex1
                {
                  OFFSET -8.8614 0.774994 2.4612
                  CHANNELS 3 Zrotation Xrotation Yrotation
                  JOINT RightHandIndex2
                  {
                    OFFSET -3.3146 -0.808304 0.5841
                    CHANNELS 3 Zrotation Xrotation Yrotation
                    JOINT RightHandIndex3
                    {
                      OFFSET -2.2628 -0.552002 0.3989
                      CHANNELS 3 Zrotation Xrotation Yrotation
                      End Site
                      {
                        OFFSET -1.6102 -0.4807 0.2612
                      }
                    }
                  }
                }
                JOINT RightHandMiddle1
                {
                  OFFSET -8.9937 0.894989 0.2143
                  CHANNELS 3 Zrotation Xrotation Yrotation
                  JOINT RightHandMiddle2
                  {
                    OFFSET -4.0984 0.0113983 -0.0242
                    CHANNELS 3 Zrotation Xrotation Yrotation
                    JOINT RightHandMiddle3
                    {
                      OFFSET -2.2716 0.00691223 -0.0138001
                      CHANNELS 3 Zrotation Xrotation Yrotation
                      End Site
                      {
                        OFFSET -2.0404 -0.1441 0.0027
                      }
                    }
                  }
                }
                JOINT RightHandRing1
                {
                  OFFSET -8.5234 0.597198 -2.0164
                  CHANNELS 3 Zrotation Xrotation Yrotation
                  JOINT RightHandRing2
                  {
                    OFFSET -3.7188 -0.188309 -0.2328
                    CHANNELS 3 Zrotation Xrotation Yrotation
                    JOINT RightHandRing3
                    {
                      OFFSET -2.1191 -0.106598 -0.1332
                      CHANNELS 3 Zrotation Xrotation Yrotation
                      End Site
                      {
                        OFFSET -1.8737 -0.2304 -0.0886
                      }
                    }
                  }
                }
                JOINT RightHandPinky1
                {
                  OFFSET -7.9094 -0.601105 -3.4825
                  CHANNELS 3 Zrotation Xrotation Yrotation
                  JOINT RightHandPinky2
                  {
                    OFFSET -2.2874 -0.477005 -0.6314
                    CHANNELS 3 Zrotation Xrotation Yrotation
                    JOINT RightHandPinky3
                    {
                      OFFSET -1.6774 -0.349396 -0.4633
                      CHANNELS 3 Zrotation Xrotation Yrotation
                      End Site
                      {
                        OFFSET -1.4888 -0.4091 -0.3416
                      }
                    }
                  }
                }
                JOINT RightHandThumb1
                {
                  OFFSET -1.833 -1.38751 1.3896
                  CHANNELS 3 Zrotation Xrotation Yrotation
                  JOINT RightHandThumb2
                  {
                    OFFSET -3.41299 -1.12099 2.5732
                    CHANNELS 3 Zrotation Xrotation Yrotation
                    JOINT RightHandThumb3
                    {
                      OFFSET -2.24741 -0.804108 1.6192
                      CHANNELS 3 Zrotation Xrotation Yrotation
                      End Site
                      {
                        OFFSET -1.6527 -0.5689 1.1317
                      }
                    }
                  }
                }
              }
            }
          }
        }
      }
    }
  }
  JOINT RightUpLeg
  {
    OFFSET -9.1966 3.8861 -0.7581
    CHANNELS 3 Zrotation Xrotation Yrotation
    JOINT RightLeg
    {
      OFFSET -0.7359 -41.0265 0
      CHANNELS 3 Zrotation Xrotation Yrotation
      JOINT RightFoot
      {
        OFFSET 0 -40.2855 0
        CHANNELS 3 Zrotation Xrotation Yrotation
        JOINT RightToeBase
        {
          OFFSET 0 -5.6122 11.7359
          CHANNELS 3 Zrotation Xrotation Yrotation
          End Site
          {
            OFFSET 0 0 7.8731
          }
        }
      }
    }
  }
  JOINT LeftUpLeg
  {
    OFFSET 9.1965 3.8864 -0.7581
    CHANNELS 3 Zrotation Xrotation Yrotation
    JOINT LeftLeg
    {
      OFFSET 0.7359 -41.0268 0
      CHANNELS 3 Zrotation Xrotation Yrotation
      JOINT LeftFoot
      {
        OFFSET 0 -40.2855 0
        CHANNELS 3 Zrotation Xrotation Yrotation
        JOINT LeftToeBase
        {
          OFFSET 0 -5.6122 11.7359
          CHANNELS 3 Zrotation Xrotation Yrotation
          End Site
          {
            OFFSET 0 0 7.8731
          }
        }
      }
    }
  }
}
MOTION
Frames:	5
Frame Time:	0.0333333
5.84602e-005 68.8428 3.50346 0 0 -0 0 0 -0 0 0 -0 0 0 -0 0 0 -0 0 0 -0 0 0 -0 0 0 -0 0 0 -0 0 0 -0 0 0 -0 0 0 -0 0 0 -0 0 0 -0 -0.0146107 -8.87603e-005 -2.63497e-007 2.99804e-018 -2.42657e-020 -1.42182e-022 0 0 -0 -0.0187562 -0.001176 5.858e-005 5.06224e-018 3.88251e-019 1.21329e-020 0 0 -0 -0.012269 -0.00324817 0.000675346 -1.74678e-018 3.88251e-019 -0 0 0 -0 0 0 -0 0 0 -0 0 0 -0 0 0 -0 0 0 -0 0 0 -0 0 0 -0 0 0 -0 0 0 -0 0 0 -0 0.0149955 -9.10982e-005 2.64101e-007 -9.69331e-018 1.21329e-020 -4.7394e-023 0 0 -0 0.0189956 -0.00119102 -5.96516e-005 -5.41541e-019 0 2.42657e-020 0 0 -0 0.0122698 -0.00324857 -0.000673756 -2.00796e-019 0 -1.94126e-019 0 0 -0 0 0 -0 0 0 -0 3.39842 1.33031 -0.0637918 -5.65207e-008 0.834868 -0.000436188 -3.39935 -2.16518 -0.0642563 -8.89002e-024 -1.18485e-023 -1.48106e-024 -3.39844 1.35642 0.0640283 -3.18788e-007 0.782166 -0.000588827 3.39931 -2.13858 0.0634662 1.1399e-023 0 -0 
0.0020146 27.7671 7.29949 -0 -66.81 -0 -0.176347 3.95339 -0.229482 -0.337987 7.90745 -0.448338 -0.337987 7.90744 -0.448339 0.601993 0.461289 -0.071903 4.04221e-007 13.3888 -3.01834e-008 1.22497 -8.69819 -7.24033 -5.01668 -13.3813 -30.6741 -22.7311 -13.264 -33.9679 -5.78842 -9.10694 -18.4762 -3.66776e-007 -5.97206e-007 4.77188e-007 -4.34867e-007 4.41471e-006 4.30046e-006 -7.67598e-007 1.31155e-006 2.86601e-006 -3.66776e-007 -5.97206e-007 4.77188e-007 -0.0145915 -8.38252e-005 6.44656e-006 -7.67422e-007 1.31118e-006 2.86618e-006 -3.66776e-007 -5.97206e-007 4.77188e-007 -0.0187445 -0.00117392 5.9669e-005 -7.67344e-007 1.31109e-006 2.86623e-006 -3.66776e-007 -5.97206e-007 4.77188e-007 -0.0123276 -0.00325655 0.000693692 -1.66073e-006 3.50723e-008 1.17542e-006 -3.66776e-007 -5.97206e-007 4.77188e-007 -4.34867e-007 4.41471e-006 4.30046e-006 -7.67598e-007 1.31155e-006 2.86601e-006 11.6101 -6.0914 14.8024 33.3627 13.1731 9.77734 18.6551 -24.1759 12.7352 28.5945 12.0101 -5.96429 -7.95139e-015 -7.95139e-016 -0 -1.81178e-006 -2.14573e-006 1.72777e-006 -4.77083e-015 -6.36111e-015 -0 -7.95139e-015 -7.95139e-016 -0 0.0149773 -9.22704e-005 -1.88295e-006 3.97252e-031 7.15625e-015 -3.18055e-015 -7.95139e-015 -7.95139e-016 -0 0.0189306 -0.00118345 -6.73305e-005 1.59028e-015 7.95139e-016 -3.18055e-015 -7.95139e-015 -7.95139e-016 -0 0.0122708 -0.00324809 -0.000677569 -3.18055e-015 4.77083e-015 -3.18055e-015 -7.95139e-015 -7.95139e-016 -0 -1.81178e-006 -2.14573e-006 1.72777e-006 -4.77083e-015 -6.36111e-015 -0 -3.65851 -16.3753 -5.67906 -4.61644 74.2565 3.63029 -5.63301 1.75259 -0.0777884 2.1271e-007 1.08192e-008 -1.29522e-008 3.71533 -22.5121 6.39112 18.8262 83.805 -19.1095 5.7314 1.12899 1.43439 -1.49089e-016 0 -0 
0.00427189 1.20626 4.64994 -180 -69.7344 -180 -0.261056 6.50815 -0.401148 -0.480599 13.0179 -0.77985 -0.480598 13.0179 -0.77985 0.994145 0.68504 -0.117404 7.47848e-008 22.006 -9.41625e-008 0.772418 -14.0838 -12.1803 -15.2217 -16.3792 -51.9939 -44.8022 -14.896 -57.255 -12.6462 -13.623 -31.0331 -3.00342e-006 -5.80122e-007 -9.85168e-007 3.496e-006 2.35578e-009 -5.16541e-007 -3.00342e-006 -5.80122e-007 -9.85168e-007 -3.00342e-006 -5.80122e-007 -9.85168e-007 -0.0145824 -9.22965e-005 -2.39976e-006 -4.70797e-006 -1.51496e-006 -3.36943e-007 -3.00342e-006 -5.80122e-007 -9.85168e-007 -0.0187794 -0.00118064 6.00715e-005 -4.70749e-006 -1.51482e-006 -3.36961e-007 -3.00342e-006 -5.80122e-007 -9.85168e-007 -0.0122882 -0.00325386 0.000678674 -3.00357e-006 -5.80031e-007 -9.85138e-007 -3.00342e-006 -5.80122e-007 -9.85168e-007 3.496e-006 2.35578e-009 -5.16541e-007 -3.00342e-006 -5.80122e-007 -9.85168e-007 20.8271 -9.39394 24.619 52.533 21.1761 16.9607 37.8636 -38.1061 24.6365 48.5299 19.693 -9.90813 -1.52189e-006 -2.88208e-007 7.01889e-007 -1.52189e-006 -2.88208e-007 7.01889e-007 -9.54166e-015 1.59028e-014 -0 -1.52189e-006 -2.88208e-007 7.01889e-007 0.0150143 -9.27157e-005 -8.70512e-007 3.18055e-015 6.36111e-015 -0 -1.52189e-006 -2.88208e-007 7.01889e-007 0.0189692 -0.00118596 -5.69971e-005 -3.18055e-015 -9.54166e-015 1.59028e-015 -1.52189e-006 -2.88208e-007 7.01889e-007 0.0122564 -0.00324152 -0.000675712 -6.36111e-015 -3.18055e-015 3.18055e-015 -1.52189e-006 -2.88208e-007 7.01889e-007 -1.52189e-006 -2.88208e-007 7.01889e-007 -9.54166e-015 1.59028e-014 -0 -9.52733 -26.6873 -11.505 -172.833 59.1404 170.802 -6.86428 4.95514 -2.61399 -4.93216e-007 4.75221e-007 -5.68874e-007 10.5011 -36.4013 14.8653 173.476 42.8379 -170.006 7.08741 3.51527 3.66784 -3.22196e-008 -4.24945e-007 -3.64771e-009 
0.0038763 2.45117 4.84582 -180 -71.6848 -180 -0.258657 6.34803 -0.392048 -0.477732 12.6977 -0.762139 -0.477732 12.6977 -0.76214 0.976454 0.448157 -0.111566 1.41494e-007 21.3462 -3.39053e-007 0.685822 -13.6299 -11.9328 -14.6945 -16.3888 -51.0367 -43.7553 -14.994 -56.2252 -12.2809 -13.3654 -30.359 -1.11319e-014 -3.18055e-015 6.36111e-015 -9.54166e-015 3.18055e-015 -3.18055e-015 -7.95139e-015 6.36111e-015 -6.36111e-015 -1.11319e-014 -3.18055e-015 6.36111e-015 -0.0146045 -9.1082e-005 5.4502e-007 7.95139e-015 3.18055e-015 -0 -1.11319e-014 -3.18055e-015 6.36111e-015 -0.0187438 -0.00117718 5.91226e-005 -4.77083e-015 -3.18055e-015 3.18055e-015 -1.11319e-014 -3.18055e-015 6.36111e-015 -0.0121821 -0.00322885 0.000673854 -1.59028e-015 9.54166e-015 -6.36111e-015 -1.11319e-014 -3.18055e-015 6.36111e-015 -9.54166e-015 3.18055e-015 -3.18055e-015 -7.95139e-015 6.36111e-015 -6.36111e-015 20.3922 -9.04259 24.0913 51.7702 20.8032 16.8593 36.8439 -37.539 23.9926 47.3809 19.5233 -8.76524 7.54078e-007 1.55051e-007 -3.57424e-007 1.75305e-006 3.60901e-006 -4.24239e-007 7.54078e-007 1.55051e-007 -3.57424e-007 7.54078e-007 1.55051e-007 -3.57424e-007 0.0149924 -9.61129e-005 7.98651e-007 1.24488e-006 -2.84375e-007 5.92408e-007 7.54078e-007 1.55051e-007 -3.57424e-007 0.0189829 -0.0011915 -5.91522e-005 7.54089e-007 1.54991e-007 -3.57458e-007 7.54078e-007 1.55051e-007 -3.57424e-007 0.0122732 -0.00324793 -0.000675017 7.54077e-007 1.55014e-007 -3.57462e-007 7.54078e-007 1.55051e-007 -3.57424e-007 1.75305e-006 3.60901e-006 -4.24239e-007 7.54078e-007 1.55051e-007 -3.57424e-007 -9.46475 -26.2225 -11.3764 -172.535 61.2229 170.68 -7.03402 4.81986 -2.38952 6.77857e-008 -8.46914e-007 9.04647e-009 10.5269 -35.7967 14.6021 173.284 45.2123 -170.166 7.35555 3.43859 3.34688 -5.96354e-016 0 1.59028e-015 
0.0033451 4.54733 5.16418 -180 -74.9926 -180 -0.253758 6.10678 -0.377415 -0.470835 12.2151 -0.733756 -0.470835 12.2151 -0.733756 0.946413 0.196184 -0.104208 2.83649e-007 20.4089 -4.4935e-007 0.616114 -13.003 -11.5286 -13.8097 -16.3719 -49.4095 -41.9849 -15.1214 -54.4704 -11.6827 -12.9773 -29.2856 -1.74931e-014 2.54444e-014 -0 9.35251e-007 -1.0132e-006 -2.58653e-007 -1.69447e-007 -1.15027e-006 4.26386e-007 -1.74931e-014 2.54444e-014 -0 -0.0146044 -8.59238e-005 -1.75321e-006 -1.70507e-007 -1.15033e-006 4.26239e-007 -1.74931e-014 2.54444e-014 -0 -0.0187952 -0.00118034 5.78779e-005 -1.70808e-007 -1.15043e-006 4.26203e-007 -1.74931e-014 2.54444e-014 -0 -0.0122374 -0.00323927 0.000676079 -9.54166e-015 -3.18055e-015 -0 -1.74931e-014 2.54444e-014 -0 9.35251e-007 -1.0132e-006 -2.58653e-007 -1.69447e-007 -1.15027e-006 4.26386e-007 19.664 -8.58531 23.2541 50.4375 20.1898 16.53 35.1522 -36.5619 22.9285 45.6063 19.1113 -7.4688 3.53113e-031 -3.18055e-015 6.36111e-015 -1.17956e-006 -2.70478e-007 4.54466e-007 5.8978e-007 1.35239e-007 -2.27233e-007 3.53113e-031 -3.18055e-015 6.36111e-015 0.0149845 -9.59969e-005 6.35274e-007 5.90824e-007 1.35203e-007 -2.27251e-007 3.53113e-031 -3.18055e-015 6.36111e-015 0.0189928 -0.00119187 -5.51982e-005 -9.54166e-015 -6.36111e-015 3.18055e-015 3.53113e-031 -3.18055e-015 6.36111e-015 0.0122588 -0.00324655 -0.00067379 5.90627e-007 1.34992e-007 -2.27311e-007 3.53113e-031 -3.18055e-015 6.36111e-015 -1.17956e-006 -2.70478e-007 4.54466e-007 5.8978e-007 1.35239e-007 -2.27233e-007 -9.20649 -25.4444 -11.0359 -171.93 64.75 170.346 -7.17235 4.59289 -2.10505 1.00161e-007 -3.93278e-007 1.07774e-006 10.314 -34.7744 14.0035 172.928 49.2368 -170.336 7.59317 3.29571 2.92726 1.32839e-008 -9.81795e-010 -7.31634e-010 
